<?xml version="1.0" encoding="UTF-8"?>
<!DOCTYPE svg PUBLIC "-//W3C//DTD SVG 1.1//EN" "http://www.w3.org/Graphics/SVG/1.1/DTD/svg11.dtd">
<!-- Creator: CorelDRAW 2020 (64 Bit) -->
<svg xmlns="http://www.w3.org/2000/svg" xml:space="preserve" width="84.6666mm" height="30.4798mm" version="1.1" style="shape-rendering:geometricPrecision; text-rendering:geometricPrecision; image-rendering:optimizeQuality; fill-rule:evenodd; clip-rule:evenodd"
viewBox="0 0 8466.66 3047.98"
 xmlns:xlink="http://www.w3.org/1999/xlink"
 xmlns:xodm="http://www.corel.com/coreldraw/odm/2003">
 <defs>
  <style type="text/css">
   <![CDATA[
    .fil1 {fill:#54E863;fill-rule:nonzero}
    .fil0 {fill:white;fill-rule:nonzero}
   ]]>
  </style>
 </defs>
 <g id="Camada_x0020_1">
  <metadata id="CorelCorpID_0Corel-Layer"/>
  <g id="_1981685929504">
   <path class="fil0" d="M1435.52 534.51c25.11,20.79 37.67,50.52 37.67,89.19 0,38.1 -12.56,67.84 -37.67,89.19 -25.11,21.36 -62.5,32.04 -112.13,32.04l-131.62 0 0 -193.1c0,-26.79 21.71,-48.5 48.49,-48.5l83.13 0c49.63,0 87.02,10.39 112.13,31.18zm31.17 277.53c38.39,-17.03 67.98,-41.57 88.76,-73.61 20.78,-32.04 31.17,-70.28 31.17,-114.73 0,-44.45 -10.39,-82.83 -31.17,-115.17 -20.78,-32.32 -50.37,-57.15 -88.76,-74.46 -38.4,-17.33 -84.42,-25.98 -138.11,-25.98l-249.38 0 0 606.13 112.57 0 0 -176.64 136.81 0c8.08,0 15.96,-0.22 23.69,-0.6l123.52 177.24 121.23 0 -139.12 -198.51c2.97,-1.18 5.91,-2.4 8.79,-3.67z"/>
   <path class="fil0" d="M1816.08 752.72l292.67 0 0 -92.65 -292.67 0 0 -108.14c0,-27.31 22.14,-49.45 49.45,-49.45l280.46 0 0 -94.39 -442.48 0 0 606.14 454.6 0 0 -94.39 -293.03 0c-27.07,0 -49,-21.94 -49,-49l0 -118.12z"/>
   <path class="fil0" d="M2686.43 799.46l-318.77 -391.38 -92.66 0 0 606.14 111.7 0 0 -385.16c0,-8.43 10.6,-12.21 15.94,-5.66l318.31 390.82 92.65 0 0 -606.14 -111.7 0 0 385.88c0,8.2 -10.29,11.86 -15.47,5.5z"/>
   <path class="fil0" d="M3447.88 796.45c-10.69,25.69 -25.54,48.2 -44.59,67.54 -19.06,19.35 -41.57,34.2 -67.54,44.59 -25.98,10.39 -54.28,15.59 -84.87,15.59 -30.6,0 -58.88,-5.2 -84.85,-15.59 -25.98,-10.39 -48.49,-25.24 -67.55,-44.59 -19.04,-19.34 -33.91,-42 -44.59,-67.98 -10.69,-25.97 -16.02,-54.25 -16.02,-84.86 0,-31.16 5.33,-59.59 16.02,-85.29 10.68,-25.68 25.68,-48.19 45.03,-67.53 19.34,-19.34 41.84,-34.21 67.54,-44.6 25.67,-10.4 53.82,-15.59 84.42,-15.59 30.59,0 58.89,5.19 84.87,15.59 25.97,10.39 48.48,25.26 67.54,44.6 19.05,19.34 33.9,41.85 44.59,67.53 10.67,25.7 16.02,54.13 16.02,85.29 0,31.18 -5.35,59.61 -16.02,85.3zm36.8 -308.26c-29.44,-28 -63.94,-49.8 -103.48,-65.38 -39.54,-15.59 -82.99,-23.38 -130.32,-23.38 -46.75,0 -90.05,7.79 -129.88,23.38 -39.84,15.58 -74.47,37.38 -103.91,65.38 -29.44,28 -52.26,60.9 -68.41,98.71 -16.16,37.82 -24.25,79.23 -24.25,124.25 0,45.03 8.09,86.46 24.25,124.26 16.15,37.82 38.97,70.73 68.41,98.72 29.44,28 64.07,49.79 103.91,65.38 39.83,15.58 83.41,23.37 130.75,23.37 46.76,0 89.91,-7.79 129.45,-23.37 39.54,-15.59 74.04,-37.24 103.48,-64.95 29.43,-27.71 52.23,-60.62 68.41,-98.72 16.15,-38.09 24.24,-79.66 24.24,-124.69 0,-45.02 -8.09,-86.43 -24.24,-124.25 -16.18,-37.81 -38.98,-70.71 -68.41,-98.71z"/>
   <path class="fil0" d="M4110.74 408.09l-203.73 467.25 -201.52 -467.25 -122.09 0 242.79 555.38c13.47,30.84 43.92,50.76 77.56,50.76 33.68,0 64.15,-19.97 77.61,-50.85l241.95 -555.29 -112.57 0z"/>
   <path class="fil1" d="M5516.34 876.72c-34.46,15.04 -71.83,22.54 -112.14,22.54 -40.32,0 -77.14,-6.6 -110.48,-19.79 -33.36,-13.2 -62.31,-31.89 -86.85,-56.07 -24.56,-24.18 -43.62,-52.77 -57.17,-85.75 -13.58,-32.98 -20.34,-69.26 -20.34,-108.83 0,-39.58 6.76,-75.87 20.34,-108.85 13.55,-32.98 32.61,-61.56 57.17,-85.74 24.54,-24.19 53.49,-42.88 86.85,-56.07 33.34,-13.2 70.16,-19.79 110.48,-19.79 40.31,0 77.68,7.52 112.14,22.53 34.44,15.04 65.59,37.58 93.45,67.61l92.35 -86.85c-35.93,-42.49 -79.9,-74.56 -131.93,-96.19 -52.05,-21.61 -109.58,-32.43 -172.6,-32.43 -59.37,0 -113.98,9.73 -163.81,29.13 -49.85,19.43 -93.44,46.92 -130.83,82.45 -37.37,35.57 -66.33,77.51 -86.85,125.89 -20.52,48.37 -30.78,101.14 -30.78,158.31 0,57.16 10.26,109.93 30.78,158.31 20.52,48.36 49.29,90.33 86.31,125.87 36.99,35.55 80.61,63.04 130.82,82.45 32.29,12.49 66.34,20.95 102.13,25.4l4.88 0.24 -14.44 52.02 25.88 0c15.57,0 26.84,2.5 33.81,7.51 6.95,5.01 10.44,11.69 10.44,20.04 0,8.89 -3.35,16.13 -10.03,21.7 -6.67,5.56 -18.08,8.36 -34.22,8.36 -10.58,0 -20.45,-1.13 -29.64,-3.35 -9.18,-2.23 -18.24,-5.57 -27.13,-10.01l-19.2 49.24c10.56,5.57 22.26,9.88 35.06,12.95 12.8,3.05 26.72,4.59 41.75,4.59 34.5,0 62.04,-7.09 82.64,-21.29 20.59,-14.19 30.89,-33.53 30.89,-58.02 0,-17.82 -5.98,-33.26 -17.94,-46.34 -11.98,-13.08 -30.2,-21.01 -54.69,-23.79l3.07 -10.9 12.96 0.62c58.66,-1.39 112.24,-12.33 160.74,-32.82 52.03,-21.98 96,-53.87 131.93,-95.64l-92.35 -87.94c-27.86,30.77 -59.01,53.68 -93.45,68.7z"/>
   <path class="fil1" d="M5974.72 723.36l144.12 -336.79 144.64 336.79 -288.76 0zm45.91 -415.12l-317.41 705.36 147.31 0 76.21 -178.11 384.9 0 76.49 178.11 149.51 0 -318.46 -705.48c-17.62,-39.01 -56.45,-64.09 -99.26,-64.09 -42.84,0 -81.7,25.13 -99.29,64.21z"/>
   <path class="fil1" d="M6054.16 152.77c5.73,-7.06 13.25,-10.6 22.53,-10.6 6.18,0 12.37,2.21 18.56,6.62 6.17,4.43 12.69,9.61 19.54,15.58 6.85,5.96 14.59,11.04 23.2,15.24 8.61,4.21 18.22,6.3 28.82,6.3 21.64,0 38.87,-8.06 51.69,-24.19 12.81,-16.13 19.44,-37 19.88,-62.63l-44.4 0c-0.44,11.93 -3.65,21.21 -9.6,27.83 -5.97,6.63 -13.59,9.94 -22.87,9.94 -5.74,0 -11.71,-2.2 -17.89,-6.62 -6.19,-4.41 -12.71,-9.5 -19.55,-15.24 -6.85,-5.74 -14.69,-10.82 -23.52,-15.24 -8.84,-4.42 -18.56,-6.63 -29.16,-6.63 -21.65,0 -38.77,7.96 -51.36,23.85 -12.59,15.91 -19.33,37.56 -20.21,64.94l44.4 0c0.88,-12.35 4.2,-22.08 9.94,-29.15z"/>
   <path class="fil1" d="M7223.1 737.1c-13.57,32.62 -32.43,61.21 -56.62,85.75 -24.19,24.56 -52.77,43.42 -85.75,56.62 -32.98,13.19 -68.9,19.78 -107.74,19.78 -38.85,0 -74.75,-6.59 -107.74,-19.78 -32.98,-13.2 -61.56,-32.06 -85.74,-56.62 -24.19,-24.54 -43.07,-53.31 -56.63,-86.29 -13.56,-32.99 -20.33,-68.89 -20.33,-107.74 0,-39.58 6.77,-75.68 20.33,-108.29 13.56,-32.61 32.61,-61.19 57.17,-85.76 24.55,-24.54 53.14,-43.42 85.75,-56.61 32.6,-13.2 68.34,-19.79 107.19,-19.79 38.84,0 74.76,6.59 107.74,19.79 32.98,13.19 61.56,32.07 85.75,56.61 24.19,24.57 43.05,53.15 56.62,85.76 13.55,32.61 20.34,68.71 20.34,108.29 0,39.57 -6.79,75.68 -20.34,108.28zm133.57 -266.05c-20.52,-47.99 -49.47,-89.77 -86.85,-125.33 -37.38,-35.53 -81.18,-63.21 -131.37,-83 -50.22,-19.79 -105.37,-29.68 -165.46,-29.68 -59.36,0 -114.34,9.89 -164.91,29.68 -50.57,19.79 -94.54,47.47 -131.92,83 -37.38,35.56 -66.34,77.34 -86.84,125.33 -20.53,48.02 -30.79,100.6 -30.79,157.77 0,57.16 10.26,109.76 30.79,157.76 20.5,48 49.46,89.78 86.84,125.32 37.38,35.56 81.35,63.22 131.92,83 50.57,19.79 105.9,29.68 166.01,29.68 59.37,0 114.14,-9.89 164.36,-29.68 50.19,-19.78 93.99,-47.27 131.37,-82.45 37.38,-35.18 66.33,-76.96 86.85,-125.32 20.51,-48.38 30.78,-101.15 30.78,-158.31 0,-57.17 -10.27,-109.75 -30.78,-157.77z"/>
   <path class="fil1" d="M4432.95 667.22l107.63 -246.86 82.32 190.87c26.5,-38.4 58.71,-81.09 97.34,-126.53l-77.05 -176.24c-17.1,-39.13 -55.76,-64.43 -98.47,-64.43 -42.77,0 -81.45,25.35 -98.53,64.55l-126.58 290.49c29.4,15.05 69.69,37.74 113.34,68.15z"/>
   <path class="fil1" d="M4249.65 759.65l-110.65 253.94 142.92 0 68.74 -157.66c-29.99,-32.44 -63.07,-63.85 -101.01,-96.28z"/>
   <path class="fil1" d="M4720.24 836.93l76.19 176.67 155 0 -145.46 -332.78c-31.9,52.75 -60.41,105.34 -85.73,156.11z"/>
   <path class="fil0" d="M5056.66 226.69c-6.42,0 -12.52,2.07 -17.63,5.99 -367.67,281.94 -483.47,572.24 -484.6,575.14l-4.08 10.5 -7.51 -8.39c-85.53,-95.51 -192.76,-157.08 -249.07,-185.28 -5.86,-2.94 -12.41,-4.49 -18.97,-4.49 -11.37,0 -22.09,4.42 -30.18,12.46 -8.68,8.62 -13.14,20.11 -12.56,32.33 0.59,12.15 6.33,23.54 15.77,31.27 115.55,94.54 188.68,176.8 260.85,293.36 10.15,16.38 27.01,25.78 46.26,25.78 22.81,0 42.31,-13.03 50.89,-34.01 85.06,-207.86 235.56,-498.78 469.58,-704.27 6.2,-5.44 9.8,-13.27 9.9,-21.47 0.09,-8.22 -3.2,-15.82 -9.26,-21.38 -5.29,-4.87 -12.18,-7.54 -19.39,-7.54z"/>
   <path class="fil1" d="M1097.08 2074.04l-443.41 -364.08c-54.97,-45.34 -98.05,-93.94 -129.26,-145.81 -31.22,-51.86 -46.82,-105.71 -46.82,-161.56 0,-80.2 27.21,-142.25 81.64,-186.14 54.42,-43.87 131.25,-65.82 230.5,-65.82 98.71,0 175.15,21.11 229.31,63.3 54.15,42.2 81.24,101.94 81.24,179.2l0 12.61 -163.28 0 0 -12.61c0,-37.37 -12.81,-66.24 -38.41,-86.6 -25.62,-20.36 -61.9,-30.55 -108.86,-30.55 -46.96,0 -83.51,11.02 -109.64,33.06 -26.16,22.05 -39.23,53.22 -39.23,93.55 0,36.95 11.33,75.17 34.02,114.62 22.68,39.49 55.09,76.65 97.25,111.5l532.24 445.33 -207.29 0zm-365.78 -402.5c-66.16,0 -117.52,13.02 -154.07,39.06 -36.55,26.04 -54.81,62.78 -54.81,110.22 0,46.62 19.32,82.84 58.02,108.66 38.68,25.82 93.24,38.74 163.67,38.74 100.85,0 179.01,-31.28 234.51,-93.86 55.49,-62.56 83.24,-150.74 83.24,-264.54l155.27 0c0,100.36 -20.01,185.81 -60.02,256.36 -40.02,70.54 -97.92,124.4 -173.69,161.56 -75.77,37.17 -167.55,55.74 -275.32,55.74 -109.4,0 -194.1,-22.88 -254.12,-68.66 -60.03,-45.76 -90.04,-110.43 -90.04,-194 0,-75.16 26.27,-135.2 78.84,-180.14 52.54,-44.93 126.31,-70.75 221.3,-77.48l67.22 108.34z"/>
   <polygon class="fil0" points="1998.53,1511.15 1721.73,1511.15 1721.73,2074.04 1467.83,2074.04 1467.83,1511.15 1191.01,1511.15 1191.01,1297.64 1998.53,1297.64 "/>
   <path class="fil0" d="M2322.95 1682.14l169.57 0c64.17,0 97.16,-31.43 97.16,-85.96 0,-54.53 -32.99,-85.96 -97.16,-85.96l-133.11 0c-20.14,0 -36.46,16.46 -36.46,36.77l0 135.15zm296.98 391.9l-104.49 -200.57 -192.49 0 0 200.57 -253.9 0 0 -776.4 440.89 0c213.56,0 333.64,92.42 333.64,296.69 0,104.45 -46.74,178.39 -111.82,224.61l137.49 255.1 -249.32 0z"/>
   <path class="fil0" d="M3453.06 1781.96l-80.65 -244.01 -44 0 -80.67 244.01 205.32 0zm62.33 189.48l-329.97 0 -33.91 102.6 -262.16 0 255.91 -701.5c16.42,-45 58.91,-74.9 106.46,-74.9l197.36 0c47.55,0 90.06,29.9 106.47,74.9l255.91 701.5 -262.15 0 -33.92 -102.6z"/>
   <path class="fil0" d="M5216.5 1781.96l-80.66 -244.01 -44 0 -80.66 244.01 205.32 0zm62.32 189.48l-329.97 0 -33.91 102.6 -262.15 0 255.91 -701.5c16.41,-45 58.92,-74.9 106.46,-74.9l197.36 0c47.55,0 90.05,29.9 106.47,74.9l255.9 701.5 -262.15 0 -33.92 -102.6z"/>
   <path class="fil0" d="M4394.35 1812.46c0,-29.57 -20.16,-62.85 -79.74,-62.85l-201.66 0 0 128.48 201.66 0c59.58,0 79.74,-36.97 79.74,-65.63zm-281.4 -318.87l0 116.45 196.16 0c59.58,0 78.82,-29.58 78.82,-57.3 0,-29.57 -19.24,-59.15 -78.82,-59.15l-196.16 0zm538.04 361.39c0,124.78 -87.07,219.06 -328.13,219.06l-463.8 0 0 -776.4 476.63 0c232.82,0 295.14,103.52 295.14,206.11 0,87.81 -44.91,125.71 -98.99,155.28l0 14.79c74.25,37.9 119.15,92.43 119.15,181.16z"/>
   <polygon class="fil0" points="5622.49,1297.64 5876.39,1297.64 5876.39,1860.53 6287.02,1860.53 6287.02,2074.04 5622.49,2074.04 "/>
   <polygon class="fil0" points="7168.75,1297.64 7168.75,2074.04 6914.85,2074.04 6914.85,1793.05 6616.04,1793.05 6616.04,2074.04 6362.14,2074.04 6362.14,1297.64 6616.04,1297.64 6616.04,1578.62 6914.85,1578.62 6914.85,1297.64 "/>
   <path class="fil0" d="M7760.42 1464.76c-8.68,-0.12 -13.57,3.52 -11.82,6.74 3.34,6.21 14.81,8.73 21.17,4.41 1.24,-0.85 2.1,-3.95 1.4,-4.46 -3.89,-2.85 -8.31,-5.22 -10.75,-6.69z"/>
   <path class="fil0" d="M7848.11 1505.79c-10.69,4.15 -22.21,7.54 -33.83,9.35 -14.3,2.23 -29.06,2.49 -42.28,3.5 -10.86,-0.7 -20.28,-1.01 -29.58,-2.05 -5.09,-0.58 -11.07,-1.37 -14.69,-3.9 -8.07,-5.65 -16.86,-5.51 -26.36,-4.94 -42.41,2.53 -84.43,6.48 -123.35,21.82 -12.62,4.96 -23.94,11.4 -32.46,20.61 -12.39,13.41 -8.46,24.94 10.78,31.2 16.59,5.39 34.12,6.29 51.7,6.03 6.85,-0.1 9.25,1.51 8.98,7.18 -0.46,9.53 -0.05,19.08 0.11,28.62 0.05,3.05 -0.47,5.21 -5.06,5.88 -30.92,4.5 -61.3,5.11 -90.6,-6.26 -38.25,-14.87 -52.81,-42.41 -41.07,-77.49 7.22,-21.59 25.07,-35.75 48.05,-46.47 30.82,-14.36 64.56,-22.14 99.26,-26.81 29.36,-3.94 59.08,-6.12 88.63,-9.14 2.26,-0.23 5.09,-0.42 6.56,-1.55 16.26,-12.49 35.72,-12.14 55.36,-8.44 21.56,4.05 41.92,11.02 59.5,22.13 6.23,3.93 11.68,9.18 15.81,14.66 5.08,6.76 3.33,12.65 -5.46,16.07zm-219.09 29.02c-0.18,-5.5 1.67,-8.02 8.73,-8.77 15.69,-1.64 31.3,-3.89 48.05,-6.04 -0.31,5.48 -0.67,9.64 -0.77,13.8 -0.76,32.44 -1.42,64.87 -2.2,97.3 -0.44,18.44 -1.15,36.87 -1.45,55.32 -0.06,3.86 -1.67,5.72 -6.29,6.64 -11.43,2.27 -22.85,4.63 -34.09,7.43 -6.23,1.54 -7.18,-0.5 -7.26,-4.82 -0.26,-12.93 -0.96,-25.85 -1.31,-38.78 -1.13,-40.69 -2.08,-81.39 -3.41,-122.08zm132.59 192.82c-32.35,8.81 -65.91,14.71 -98.85,22.14 -13.8,3.12 -27.65,6.3 -40.95,10.54 -9.83,3.14 -17.73,9.03 -22.61,16.96 -6.17,10.04 -3.93,18.43 9.94,23.77 11.67,4.5 13.51,10.71 12.65,19.53 -0.55,5.47 -0.08,11.02 0.07,16.52 0.08,3.4 -1.91,4.76 -5.86,3.99 -37.92,-7.41 -66.56,-28.38 -70.67,-55.16 -3.08,-20.07 5.96,-36.07 24.53,-48.88 11.8,-8.14 26.03,-12.46 40.74,-15.78 33.98,-7.67 68.15,-14.86 101.87,-23.2 11.55,-2.86 22.93,-7.54 32.81,-13.19 20.82,-11.87 20.42,-33.85 0.13,-46.47 -10.91,-6.79 -23.79,-9.46 -37.12,-11.03 -11.23,-1.32 -11.07,-1.3 -10.74,-10.3 0.38,-10.18 0.55,-20.35 0.56,-30.52 0,-3.72 1.42,-5.63 6.35,-5.2 37.01,3.18 70.48,12.6 95.58,36.22 12.96,12.21 19.4,26.49 18.61,44.64 -2.6,34.57 -19.65,55.25 -57.04,65.42zm-18.46 138.4c-11.5,18.05 -30.52,30.66 -51.27,42.15 0,-9.9 -0.18,-19.12 0.16,-28.33 0.07,-1.89 1.9,-3.83 3.24,-5.59 2.88,-3.77 6.4,-7.26 8.87,-11.19 4.23,-6.73 2.33,-11.4 -6.35,-14.34 -4.86,-1.65 -6.08,-3.92 -5.78,-7.74 0.54,-6.97 0.45,-13.98 1.38,-20.91 0.23,-1.61 3.92,-4.45 5.32,-4.2 10.37,1.89 21.26,3.25 30.68,6.97 19.59,7.74 25.26,25.12 13.75,43.18zm-65.15 -61.91c-0.6,23.5 -1.79,47.01 -2.44,70.52 -0.86,31.35 -1.33,62.72 -2.25,94.06 -0.13,4.36 -1.28,8.86 -3.04,12.98 -1.9,4.44 -6.33,8.13 -12.4,7.07 -4.55,-0.79 -9.61,-3.28 -12.33,-6.27 -2.68,-2.96 -3.65,-7.49 -3.78,-11.37 -1.36,-42.36 -2.37,-84.73 -3.56,-127.1 -0.66,-23.73 -1.58,-47.45 -2.02,-71.17 -0.03,-1.84 2.4,-4.92 4.41,-5.39 11.99,-2.83 24.19,-5.05 37.48,-7.71 0,15.65 0.3,30.02 -0.07,44.38zm-54.46 127.72c-0.09,1.19 -1.59,3.01 -2.9,3.35 -18.3,4.63 -36.83,7.74 -56.08,4.13 -0.88,-0.18 -1.64,-0.85 -4.71,-2.49 21.88,-6.67 42.04,-12.81 63.83,-19.45 0,5.4 0.21,9.94 -0.14,14.46zm3.86 -523.6c0.17,-15.11 11.97,-25.4 28.77,-25.5 17.58,-0.12 31.41,10.44 31.83,24.98 0.4,13.53 -0.04,27.08 -0.06,40.62 -0.01,3.25 -0.66,5.53 -5.75,6.06 -17.06,1.79 -34.06,3.98 -51.09,5.99 -0.7,0.08 -1.48,-0.21 -3.1,-0.47 -0.15,-1.93 -0.44,-3.95 -0.45,-5.98 -0.09,-15.23 -0.31,-30.47 -0.15,-45.7zm39.02 -136.48c-264.91,0 -436.31,165.44 -436.31,414.07 0,248.64 171.4,414.08 436.31,414.08 264.89,0 436.3,-165.44 436.3,-414.08 0,-248.63 -171.41,-414.07 -436.3,-414.07z"/>
   <path class="fil0" d="M2453.21 2842.56c-44.01,0 -81.96,-7.91 -113.84,-23.75 -31.88,-15.84 -56.46,-37.85 -73.74,-66.02 -17.27,-28.18 -25.91,-60.78 -25.91,-97.8 0,-36.61 6.48,-70.76 19.43,-102.43 12.96,-31.67 31.27,-59.13 54.92,-82.37 23.65,-23.24 51.83,-41.45 84.53,-54.61 32.71,-13.16 69.21,-19.75 109.53,-19.75 38.66,0 72.81,6.59 102.42,19.75 29.62,13.16 52.04,32.09 67.26,56.77l-72.19 59.23c-11.11,-16.45 -25.3,-29 -42.58,-37.64 -17.27,-8.64 -37.84,-12.96 -61.7,-12.96 -24.27,0 -46.28,4.22 -66.02,12.65 -19.75,8.44 -36.72,20.37 -50.91,35.79 -14.19,15.43 -24.99,33.42 -32.39,53.99 -7.41,20.57 -11.11,42.37 -11.11,65.41 0,21.8 4.73,40.82 14.19,57.07 9.46,16.25 23.24,28.9 41.34,37.95 18.1,9.05 39.91,13.57 65.41,13.57 22.21,0 42.99,-4.01 62.32,-12.03 19.33,-8.02 36.82,-20.67 52.45,-37.95l59.23 60.47c-22.62,26.33 -49.46,45.36 -80.52,57.08 -31.06,11.72 -65.1,17.58 -102.12,17.58zm190.29 -7.4l86.39 -431.92 175.85 0c53.89,0 95.54,11.72 124.95,35.17 29.41,23.45 44.12,56.36 44.12,98.72 0,36.2 -8.54,67.57 -25.61,94.1 -17.07,26.53 -41.34,47 -72.81,61.4 -31.47,14.39 -68.59,21.59 -111.37,21.59l-140.69 0 52.45 -43.81 -32.7 164.75 -100.58 0zm277.67 0l-88.24 -156.73 104.9 0 88.85 156.73 -105.51 0zm-146.86 -153.02l-34.55 -47.51 128.96 0c33.32,0 59.13,-7.51 77.44,-22.53 18.3,-15.01 27.45,-36.92 27.45,-65.71 0,-20.98 -7.09,-36.51 -21.28,-46.59 -14.19,-10.07 -34.04,-15.11 -59.55,-15.11l-121.55 0 52.45 -48.75 -49.37 246.2zm511.78 160.42c-43.61,0 -81.14,-7.91 -112.61,-23.75 -31.47,-15.84 -55.64,-37.85 -72.5,-66.02 -16.87,-28.18 -25.3,-60.78 -25.3,-97.8 0,-37.02 6.37,-71.27 19.13,-102.74 12.75,-31.47 30.95,-58.82 54.6,-82.06 23.66,-23.24 51.83,-41.45 84.54,-54.61 32.7,-13.16 69,-19.75 108.9,-19.75 43.61,0 81.14,7.92 112.61,23.76 31.47,15.84 55.64,37.84 72.5,66.02 16.87,28.18 25.3,60.78 25.3,97.8 0,37.02 -6.38,71.27 -19.13,102.74 -12.75,31.47 -30.95,58.82 -54.61,82.06 -23.65,23.24 -51.83,41.45 -84.53,54.61 -32.7,13.16 -69,19.74 -108.9,19.74zm8.63 -85.15c24.27,0 46.18,-4.42 65.72,-13.26 19.54,-8.85 36.09,-21.08 49.67,-36.72 13.57,-15.63 23.96,-33.62 31.16,-53.99 7.2,-20.36 10.8,-41.85 10.8,-64.47 0,-21.4 -4.53,-40.21 -13.58,-56.46 -9.05,-16.25 -22.31,-28.9 -39.8,-37.95 -17.48,-9.05 -38.97,-13.58 -64.48,-13.58 -24.27,0 -46.07,4.43 -65.4,13.27 -19.33,8.85 -35.89,21.08 -49.67,36.71 -13.78,15.64 -24.27,33.63 -31.47,53.99 -7.2,20.37 -10.8,41.86 -10.8,64.48 0,21.39 4.63,40.21 13.88,56.46 9.26,16.25 22.63,28.9 40.11,37.95 17.48,9.05 38.77,13.57 63.86,13.57zm576.93 81.45c-27.97,0 -51.94,-5.04 -71.89,-15.12 -19.95,-10.07 -35.27,-24.68 -45.96,-43.8 -10.7,-19.13 -16.05,-42.27 -16.05,-69.42 0,-41.14 7,-77.03 20.98,-107.67 13.99,-30.65 34.04,-54.61 60.16,-71.89 26.12,-17.27 57.28,-25.91 93.48,-25.91 27.97,0 52.76,5.55 74.35,16.66 21.6,11.11 38.67,27.25 51.22,48.44 12.54,21.18 18.82,46.38 18.82,75.58 0,27.97 -4.63,53.68 -13.89,77.13 -9.25,23.45 -22.21,43.81 -38.87,61.09 -16.66,17.27 -36.3,30.75 -58.93,40.41 -22.62,9.67 -47.1,14.5 -73.42,14.5zm-212.26 116l88.85 -446.73 56.77 0 -17.28 84.54 -19.13 75.89 -8.63 77.75 -41.35 208.55 -59.23 0zm209.79 -167.83c24.68,0 46.59,-5.96 65.71,-17.89 19.13,-11.93 34.25,-28.28 45.36,-49.06 11.1,-20.77 16.66,-44.53 16.66,-71.26 0,-28.8 -8.44,-51.32 -25.3,-67.57 -16.87,-16.25 -40.93,-24.37 -72.2,-24.37 -24.27,0 -46.17,5.86 -65.71,17.58 -19.54,11.73 -34.76,27.98 -45.66,48.75 -10.9,20.77 -16.35,44.73 -16.35,71.88 0,28.39 8.43,50.81 25.3,67.26 16.86,16.45 40.93,24.68 72.19,24.68zm201.88 48.13l64.79 -327.03 56.77 0 -18.51 95.03 -6.17 -23.45c15.22,-27.56 34.55,-46.89 58,-58 23.45,-11.11 52.45,-16.66 87,-16.66l-11.11 57.38c-2.46,-0.41 -4.93,-0.61 -7.4,-0.61 -2.47,0 -5.14,0 -8.02,0 -32.5,0 -59.34,8.84 -80.52,26.53 -21.19,17.69 -35.48,45.45 -42.89,83.3l-32.7 163.51 -59.24 0zm356.15 3.7c-27.56,0 -52.24,-5.65 -74.04,-16.97 -21.8,-11.31 -38.98,-27.45 -51.52,-48.43 -12.55,-20.98 -18.82,-46.28 -18.82,-75.9 0,-27.97 4.62,-53.68 13.88,-77.13 9.26,-23.44 22.21,-43.81 38.87,-61.08 16.66,-17.28 36.31,-30.65 58.93,-40.11 22.62,-9.46 47.1,-14.19 73.43,-14.19 28.38,0 52.44,4.94 72.19,14.81 19.74,9.87 34.96,24.37 45.66,43.5 10.69,19.13 16.04,42.47 16.04,70.03 0,40.31 -6.99,76 -20.98,107.06 -13.98,31.05 -34.04,55.22 -60.16,72.5 -26.12,17.27 -57.28,25.91 -93.48,25.91zm12.96 -51.83c24.68,0 46.69,-5.96 66.02,-17.89 19.34,-11.93 34.45,-28.28 45.35,-49.06 10.9,-20.77 16.36,-44.53 16.36,-71.26 0,-28.8 -8.44,-51.32 -25.3,-67.57 -16.87,-16.25 -40.93,-24.37 -72.2,-24.37 -24.27,0 -46.07,5.86 -65.4,17.58 -19.33,11.73 -34.55,27.98 -45.66,48.75 -11.11,20.77 -16.66,44.73 -16.66,71.88 0,28.39 8.43,50.81 25.3,67.26 16.86,16.45 40.93,24.68 72.19,24.68zm94.41 48.13l17.27 -84.53 19.75 -75.9 8.02 -77.74 17.28 -88.86 59.23 0 -64.79 327.03 -56.76 0zm355.02 0l-78.36 -327.03 59.23 0 69.11 296.18 -29.62 0 188.2 -296.18 59.85 0 -207.94 327.03 -60.47 0zm369.72 3.7c-31.27,0 -58.31,-5.86 -81.14,-17.58 -22.83,-11.73 -40.62,-28.18 -53.37,-49.37 -12.76,-21.18 -19.13,-45.96 -19.13,-74.35 0,-37.02 8.22,-70.03 24.68,-99.03 16.45,-29 39.18,-51.83 68.18,-68.49 29,-16.66 62.01,-24.99 99.03,-24.99 30.85,0 57.8,5.76 80.83,17.28 23.04,11.51 40.83,27.76 53.38,48.74 12.54,20.98 18.82,45.87 18.82,74.66 0,37.02 -8.23,70.03 -24.68,99.04 -16.46,29 -38.98,51.93 -67.57,68.79 -28.59,16.87 -61.6,25.3 -99.03,25.3zm3.7 -51.83c24.68,0 46.69,-5.96 66.02,-17.89 19.34,-11.93 34.45,-28.28 45.35,-49.06 10.9,-20.77 16.36,-44.53 16.36,-71.26 0,-28.8 -8.44,-51.32 -25.3,-67.57 -16.87,-16.25 -40.93,-24.37 -72.2,-24.37 -24.27,0 -46.07,5.86 -65.4,17.58 -19.33,11.73 -34.55,27.98 -45.66,48.75 -11.11,20.77 -16.66,44.73 -16.66,71.88 0,28.39 8.43,50.81 25.3,67.26 16.86,16.45 40.93,24.68 72.19,24.68zm356.76 51.83c-31.68,0 -59.13,-5.86 -82.37,-17.58 -23.25,-11.73 -41.24,-28.18 -53.99,-49.37 -12.76,-21.18 -19.13,-45.96 -19.13,-74.35 0,-37.02 8.22,-70.03 24.68,-99.03 16.45,-29 39.28,-51.83 68.49,-68.49 29.2,-16.66 62.32,-24.99 99.34,-24.99 31.67,0 58.82,5.86 81.45,17.58 22.62,11.73 40.31,29.52 53.06,53.38l-49.98 27.76c-8.22,-16.04 -19.84,-27.87 -34.86,-35.48 -15.01,-7.61 -33.01,-11.41 -53.99,-11.41 -24.68,0 -46.69,5.86 -66.02,17.58 -19.33,11.73 -34.55,27.98 -45.66,48.75 -11.11,20.77 -16.66,44.73 -16.66,71.88 0,28.39 8.53,50.81 25.61,67.26 17.07,16.45 41.23,24.68 72.5,24.68 19.33,0 37.53,-3.91 54.6,-11.72 17.08,-7.82 31.37,-19.34 42.89,-34.56l43.19 30.86c-14.81,20.97 -34.97,37.43 -60.47,49.36 -25.5,11.93 -53.06,17.89 -82.68,17.89zm315.42 0c-32.08,0 -59.85,-5.86 -83.3,-17.58 -23.44,-11.73 -41.54,-28.18 -54.29,-49.37 -12.76,-21.18 -19.13,-46.17 -19.13,-74.96 0,-37.03 8.02,-69.93 24.06,-98.73 16.04,-28.79 37.95,-51.52 65.72,-68.18 27.76,-16.66 59.33,-24.99 94.71,-24.99 29.62,0 55.33,5.66 77.13,16.97 21.8,11.31 38.77,27.46 50.9,48.43 12.14,20.98 18.21,46.28 18.21,75.9 0,7.4 -0.42,14.91 -1.24,22.52 -0.82,7.61 -1.85,14.71 -3.08,21.29l-283.22 0 7.4 -43.19 247.43 0 -24.06 14.8c3.7,-23.03 2.06,-42.47 -4.94,-58.3 -6.99,-15.84 -17.99,-27.98 -33.01,-36.41 -15.01,-8.43 -33.01,-12.65 -53.99,-12.65 -24.68,0 -46.38,5.86 -65.1,17.59 -18.71,11.72 -33.21,27.97 -43.5,48.74 -10.28,20.78 -15.42,45.15 -15.42,73.12 0,29.62 8.53,52.55 25.6,68.8 17.08,16.25 43.09,24.37 78.06,24.37 20.57,0 39.69,-3.39 57.38,-10.18 17.69,-6.79 32.29,-15.94 43.81,-27.46l25.3 42.58c-15.63,15.22 -35.17,26.84 -58.62,34.86 -23.44,8.02 -47.71,12.03 -72.81,12.03zm-62.32 -377.62l91.94 -80.21 56.15 0 72.19 80.21 -51.83 0 -74.04 -67.87 49.98 0 -89.47 67.87 -54.92 0zm279.64 237.56l47.51 -295.56 70.34 0 -70.95 295.56 -46.9 0zm1.85 140.06c-11.1,0 -20.26,-3.7 -27.46,-11.1 -7.19,-7.41 -10.79,-16.05 -10.79,-25.92 0,-12.34 4.01,-22.42 12.03,-30.23 8.02,-7.82 17.79,-11.73 29.31,-11.73 11.1,0 20.26,3.5 27.46,10.49 7.19,6.99 10.79,15.63 10.79,25.92 0,7.81 -1.85,15.01 -5.55,21.59 -3.7,6.58 -8.64,11.73 -14.81,15.43 -6.17,3.7 -13.16,5.55 -20.98,5.55z"/>
  </g>
 </g>
</svg>
