<?xml version="1.0" encoding="UTF-8"?>
<!DOCTYPE svg PUBLIC "-//W3C//DTD SVG 1.1//EN" "http://www.w3.org/Graphics/SVG/1.1/DTD/svg11.dtd">
<!-- Creator: CorelDRAW 2020 (64 Bit) -->
<svg xmlns="http://www.w3.org/2000/svg" xml:space="preserve" width="16.9332mm" height="4.8258mm" version="1.1" style="shape-rendering:geometricPrecision; text-rendering:geometricPrecision; image-rendering:optimizeQuality; fill-rule:evenodd; clip-rule:evenodd"
viewBox="0 0 1693.32 482.58"
 xmlns:xlink="http://www.w3.org/1999/xlink"
 xmlns:xodm="http://www.corel.com/coreldraw/odm/2003">
 <defs>
  <style type="text/css">
   <![CDATA[
    .fil2 {fill:#54E863}
    .fil3 {fill:white}
    .fil1 {fill:#54E863;fill-rule:nonzero}
    .fil0 {fill:white;fill-rule:nonzero}
   ]]>
  </style>
 </defs>
 <g id="Camada_x0020_1">
  <metadata id="CorelCorpID_0Corel-Layer"/>
  <g id="_2544000855344">
   <g>
    <path class="fil0" d="M183.29 348.27c2.88,2.38 4.32,5.78 4.32,10.21 0,4.37 -1.44,7.77 -4.32,10.21 -2.87,2.45 -7.15,3.67 -12.84,3.67l-15.07 0 0 -22.11c0,-3.06 2.49,-5.55 5.55,-5.55l9.52 0c5.69,0 9.97,1.19 12.84,3.57zm3.57 31.78c4.4,-1.95 7.79,-4.76 10.17,-8.43 2.38,-3.67 3.57,-8.05 3.57,-13.14 0,-5.09 -1.19,-9.48 -3.57,-13.19 -2.38,-3.7 -5.77,-6.54 -10.17,-8.52 -4.39,-1.99 -9.66,-2.98 -15.81,-2.98l-28.56 0 0 69.41 12.89 0 0 -20.23 15.67 0c0.92,0 1.83,-0.02 2.71,-0.07l14.14 20.3 13.89 0 -15.93 -22.73c0.34,-0.14 0.67,-0.28 1,-0.42z"/>
    <path class="fil0" d="M226.87 373.26l33.51 0 0 -10.62 -33.51 0 0 -12.38c0,-3.12 2.54,-5.66 5.66,-5.66l32.12 0 0 -10.81 -50.67 0 0 69.41 52.05 0 0 -10.81 -33.55 0c-3.1,0 -5.61,-2.51 -5.61,-5.61l0 -13.52z"/>
    <path class="fil0" d="M326.53 378.61l-36.5 -44.82 -10.61 0 0 69.41 12.79 0 0 -44.1c0,-0.97 1.21,-1.4 1.82,-0.65l36.45 44.75 10.61 0 0 -69.41 -12.79 0 0 44.19c0,0.94 -1.18,1.36 -1.77,0.63z"/>
    <path class="fil0" d="M413.72 378.26c-1.22,2.94 -2.92,5.52 -5.11,7.74 -2.18,2.21 -4.76,3.91 -7.73,5.1 -2.97,1.19 -6.21,1.79 -9.72,1.79 -3.5,0 -6.74,-0.6 -9.71,-1.79 -2.98,-1.19 -5.56,-2.89 -7.74,-5.1 -2.18,-2.22 -3.88,-4.81 -5.1,-7.79 -1.23,-2.97 -1.84,-6.21 -1.84,-9.71 0,-3.57 0.61,-6.83 1.84,-9.77 1.22,-2.94 2.94,-5.52 5.15,-7.73 2.22,-2.22 4.79,-3.92 7.74,-5.11 2.94,-1.19 6.16,-1.79 9.66,-1.79 3.51,0 6.75,0.6 9.72,1.79 2.97,1.19 5.55,2.89 7.73,5.11 2.19,2.21 3.89,4.79 5.11,7.73 1.22,2.94 1.84,6.2 1.84,9.77 0,3.57 -0.62,6.82 -1.84,9.76zm4.22 -35.3c-3.38,-3.2 -7.33,-5.7 -11.85,-7.48 -4.53,-1.79 -9.51,-2.68 -14.93,-2.68 -5.35,0 -10.31,0.89 -14.87,2.68 -4.56,1.78 -8.53,4.28 -11.9,7.48 -3.37,3.21 -5.98,6.98 -7.83,11.31 -1.85,4.33 -2.78,9.07 -2.78,14.23 0,5.15 0.93,9.9 2.78,14.22 1.85,4.33 4.46,8.1 7.83,11.31 3.37,3.2 7.34,5.7 11.9,7.48 4.56,1.79 9.55,2.68 14.97,2.68 5.36,0 10.3,-0.89 14.83,-2.68 4.52,-1.78 8.47,-4.26 11.85,-7.43 3.37,-3.18 5.98,-6.94 7.83,-11.31 1.85,-4.36 2.77,-9.12 2.77,-14.27 0,-5.16 -0.92,-9.9 -2.77,-14.23 -1.85,-4.33 -4.46,-8.1 -7.83,-11.31z"/>
    <path class="fil0" d="M489.62 333.79l-23.33 53.51 -23.07 -53.51 -13.98 0 27.8 63.6c1.54,3.53 5.03,5.81 8.88,5.81 3.86,0 7.35,-2.29 8.89,-5.82l27.7 -63.59 -12.89 0z"/>
    <path class="fil0" d="M620.57 390.85c-3.11,1.36 -6.48,2.04 -10.11,2.04 -3.64,0 -6.96,-0.6 -9.97,-1.79 -3.01,-1.19 -5.62,-2.87 -7.83,-5.05 -2.22,-2.19 -3.94,-4.76 -5.16,-7.74 -1.22,-2.97 -1.83,-6.24 -1.83,-9.81 0,-3.57 0.61,-6.85 1.83,-9.82 1.22,-2.97 2.94,-5.55 5.16,-7.73 2.21,-2.18 4.82,-3.87 7.83,-5.06 3.01,-1.19 6.33,-1.79 9.97,-1.79 3.63,0 7,0.68 10.11,2.04 3.1,1.35 5.91,3.39 8.43,6.1l8.33 -7.84c-3.24,-3.83 -7.21,-6.72 -11.9,-8.67 -4.7,-1.95 -9.89,-2.93 -15.57,-2.93 -5.35,0 -10.28,0.88 -14.77,2.63 -4.5,1.75 -8.43,4.23 -11.8,7.43 -3.37,3.21 -5.99,7 -7.84,11.36 -1.85,4.36 -2.77,9.12 -2.77,14.28 0,5.15 0.92,9.91 2.77,14.27 1.85,4.37 4.45,8.15 7.79,11.36 3.34,3.2 7.27,5.68 11.8,7.43 2.91,1.13 5.98,1.89 9.21,2.29l0.44 0.03 -1.31 4.69 2.34 0c1.4,0 2.42,0.22 3.05,0.67 0.63,0.46 0.94,1.06 0.94,1.81 0,0.8 -0.3,1.46 -0.9,1.96 -0.6,0.5 -1.64,0.75 -3.09,0.75 -0.96,0 -1.85,-0.1 -2.67,-0.3 -0.83,-0.2 -1.65,-0.5 -2.45,-0.9l-1.73 4.44c0.95,0.5 2,0.89 3.16,1.17 1.15,0.27 2.41,0.41 3.76,0.41 3.12,0 5.6,-0.64 7.46,-1.92 1.85,-1.28 2.78,-3.02 2.78,-5.23 0,-1.61 -0.54,-3 -1.61,-4.18 -1.08,-1.18 -2.73,-1.9 -4.94,-2.15l0.28 -0.98 1.17 0.06c5.29,-0.13 10.12,-1.12 14.5,-2.96 4.69,-1.99 8.66,-4.86 11.9,-8.63l-8.33 -7.93c-2.52,2.77 -5.33,4.84 -8.43,6.19z"/>
    <path class="fil0" d="M661.91 377.02l13 -30.37 13.04 30.37 -26.04 0zm4.14 -37.44l-28.63 63.62 13.29 0 6.87 -16.06 34.72 0 6.9 16.06 13.48 0 -28.72 -63.63c-1.59,-3.52 -5.09,-5.78 -8.95,-5.78 -3.87,0 -7.37,2.27 -8.96,5.79z"/>
    <path class="fil0" d="M669.07 325.56c0.52,-0.64 1.2,-0.95 2.04,-0.95 0.55,0 1.11,0.2 1.67,0.59 0.56,0.4 1.14,0.87 1.76,1.41 0.62,0.54 1.32,0.99 2.09,1.37 0.78,0.38 1.65,0.57 2.61,0.57 1.95,0 3.5,-0.73 4.66,-2.18 1.15,-1.45 1.75,-3.34 1.79,-5.65l-4.01 0c-0.03,1.08 -0.32,1.91 -0.86,2.51 -0.54,0.6 -1.23,0.9 -2.06,0.9 -0.52,0 -1.06,-0.2 -1.62,-0.6 -0.56,-0.4 -1.14,-0.86 -1.76,-1.37 -0.62,-0.52 -1.33,-0.98 -2.12,-1.38 -0.8,-0.4 -1.68,-0.6 -2.63,-0.6 -1.95,0 -3.5,0.72 -4.63,2.15 -1.14,1.44 -1.75,3.39 -1.83,5.86l4.01 0c0.08,-1.11 0.38,-1.99 0.89,-2.63z"/>
    <path class="fil0" d="M774.5 378.26c-1.22,2.94 -2.92,5.52 -5.11,7.74 -2.18,2.21 -4.76,3.91 -7.73,5.1 -2.97,1.19 -6.21,1.79 -9.72,1.79 -3.5,0 -6.74,-0.6 -9.71,-1.79 -2.98,-1.19 -5.56,-2.89 -7.74,-5.1 -2.18,-2.22 -3.88,-4.81 -5.1,-7.79 -1.23,-2.97 -1.84,-6.21 -1.84,-9.71 0,-3.57 0.61,-6.83 1.84,-9.77 1.22,-2.94 2.94,-5.52 5.15,-7.73 2.22,-2.22 4.79,-3.92 7.74,-5.11 2.94,-1.19 6.16,-1.79 9.66,-1.79 3.51,0 6.75,0.6 9.72,1.79 2.97,1.19 5.55,2.89 7.73,5.11 2.19,2.21 3.89,4.79 5.11,7.73 1.22,2.94 1.83,6.2 1.83,9.77 0,3.57 -0.61,6.82 -1.83,9.76zm12.05 -23.99c-1.85,-4.33 -4.46,-8.1 -7.83,-11.31 -3.38,-3.2 -7.33,-5.7 -11.86,-7.48 -4.52,-1.79 -9.5,-2.68 -14.92,-2.68 -5.35,0 -10.31,0.89 -14.87,2.68 -4.56,1.78 -8.53,4.28 -11.9,7.48 -3.37,3.21 -5.98,6.98 -7.83,11.31 -1.85,4.33 -2.78,9.07 -2.78,14.23 0,5.15 0.93,9.9 2.78,14.22 1.85,4.33 4.46,8.1 7.83,11.31 3.37,3.2 7.34,5.7 11.9,7.48 4.56,1.79 9.55,2.68 14.97,2.68 5.36,0 10.3,-0.89 14.82,-2.68 4.53,-1.78 8.48,-4.26 11.86,-7.43 3.37,-3.18 5.98,-6.94 7.83,-11.31 1.85,-4.36 2.77,-9.12 2.77,-14.27 0,-5.16 -0.92,-9.9 -2.77,-14.23z"/>
    <path class="fil0" d="M522.86 371.96l9.71 -22.26 7.42 17.21c2.39,-3.46 5.29,-7.31 8.78,-11.41l-6.95 -15.9c-1.54,-3.53 -5.03,-5.81 -8.88,-5.81 -3.86,0 -7.35,2.29 -8.89,5.82l-11.41 26.2c2.65,1.36 6.28,3.41 10.22,6.15z"/>
    <path class="fil0" d="M506.33 380.3l-9.98 22.9 12.89 0 6.2 -14.22c-2.71,-2.93 -5.69,-5.76 -9.11,-8.68z"/>
    <path class="fil0" d="M548.77 387.27l6.87 15.93 13.98 0 -13.12 -30.01c-2.88,4.75 -5.45,9.5 -7.73,14.08z"/>
    <path class="fil1" d="M579.11 332.23c-0.58,0 -1.13,0.18 -1.59,0.54 -33.16,25.43 -43.6,51.61 -43.71,51.87l-0.36 0.95 -0.68 -0.76c-7.71,-8.61 -17.39,-14.17 -22.46,-16.71 -0.53,-0.27 -1.12,-0.4 -1.72,-0.4 -1.02,0 -1.99,0.39 -2.72,1.12 -0.78,0.78 -1.18,1.81 -1.13,2.92 0.05,1.09 0.57,2.12 1.42,2.82 10.42,8.52 17.02,15.94 23.53,26.45 0.91,1.48 2.43,2.33 4.17,2.33 2.06,0 3.82,-1.18 4.59,-3.07 7.67,-18.75 21.24,-44.98 42.35,-63.52 0.56,-0.49 0.89,-1.19 0.89,-1.93 0.01,-0.75 -0.28,-1.43 -0.83,-1.93 -0.48,-0.44 -1.1,-0.68 -1.75,-0.68z"/>
    <path class="fil1" d="M877.13 411.72l-41.09 -33.73c-5.09,-4.2 -9.08,-8.7 -11.97,-13.51 -2.89,-4.8 -4.34,-9.8 -4.34,-14.97 0,-7.43 2.52,-13.18 7.56,-17.24 5.05,-4.07 12.17,-6.1 21.36,-6.1 9.15,0 16.23,1.95 21.25,5.86 5.01,3.91 7.52,9.45 7.52,16.61l0 1.16 -15.13 0 0 -1.16c0,-3.47 -1.18,-6.14 -3.55,-8.03 -2.38,-1.89 -5.74,-2.83 -10.09,-2.83 -4.35,0 -7.74,1.02 -10.16,3.06 -2.42,2.05 -3.63,4.93 -3.63,8.67 0,3.43 1.05,6.97 3.15,10.62 2.1,3.66 5.1,7.1 9.01,10.33l49.31 41.26 -19.2 0zm-33.89 -37.29c-6.13,0 -10.89,1.21 -14.28,3.62 -3.38,2.41 -5.08,5.81 -5.08,10.21 0,4.32 1.79,7.68 5.38,10.07 3.58,2.39 8.64,3.59 15.16,3.59 9.35,0 16.59,-2.9 21.73,-8.7 5.14,-5.79 7.71,-13.97 7.71,-24.51l14.39 0c0,9.3 -1.85,17.22 -5.56,23.75 -3.71,6.54 -9.07,11.53 -16.09,14.97 -7.02,3.45 -15.53,5.17 -25.51,5.17 -10.14,0 -17.99,-2.12 -23.55,-6.36 -5.56,-4.24 -8.34,-10.24 -8.34,-17.98 0,-6.96 2.43,-12.53 7.3,-16.69 4.87,-4.16 11.71,-6.56 20.51,-7.18l6.23 10.04z"/>
    <polygon class="fil0" points="979.35,352.13 953.71,352.13 953.71,404.28 930.18,404.28 930.18,352.13 904.54,352.13 904.54,332.35 979.35,332.35 "/>
    <path class="fil0" d="M1009.41 367.97l15.71 0c5.95,0 9.01,-2.91 9.01,-7.96 0,-5.06 -3.06,-7.97 -9.01,-7.97l-12.33 0c-1.86,0 -3.38,1.53 -3.38,3.41l0 12.52zm27.52 36.31l-9.68 -18.58 -17.84 0 0 18.58 -23.52 0 0 -71.93 40.85 0c19.79,0 30.91,8.56 30.91,27.48 0,9.68 -4.33,16.53 -10.36,20.81l12.74 23.64 -23.1 0z"/>
    <path class="fil0" d="M1114.12 377.22l-7.47 -22.61 -4.08 0 -7.47 22.61 19.02 0zm5.77 17.55l-30.57 0 -3.14 9.51 -24.29 0 23.71 -64.99c1.52,-4.17 5.46,-6.94 9.87,-6.94l18.28 0c4.41,0 8.34,2.77 9.86,6.94l23.72 64.99 -24.29 0 -3.15 -9.51z"/>
    <path class="fil0" d="M1277.51 377.22l-7.48 -22.61 -4.07 0 -7.48 22.61 19.03 0zm5.77 17.55l-30.57 0 -3.14 9.51 -24.29 0 23.71 -64.99c1.52,-4.17 5.46,-6.94 9.86,-6.94l18.29 0c4.4,0 8.34,2.77 9.86,6.94l23.71 64.99 -24.29 0 -3.14 -9.51z"/>
    <path class="fil0" d="M1201.33 380.05c0,-2.75 -1.87,-5.83 -7.39,-5.83l-18.68 0 0 11.9 18.68 0c5.52,0 7.39,-3.42 7.39,-6.07zm-26.07 -29.55l0 10.79 18.17 0c5.52,0 7.31,-2.74 7.31,-5.31 0,-2.74 -1.79,-5.48 -7.31,-5.48l-18.17 0zm49.85 33.48c0,11.56 -8.07,20.3 -30.4,20.3l-42.98 0 0 -71.94 44.17 0c21.57,0 27.34,9.6 27.34,19.1 0,8.14 -4.16,11.65 -9.17,14.39l0 1.37c6.88,3.51 11.04,8.56 11.04,16.78z"/>
    <polygon class="fil0" points="1315.12,332.35 1338.65,332.35 1338.65,384.5 1376.69,384.5 1376.69,404.28 1315.12,404.28 "/>
    <polygon class="fil0" points="1458.39,332.35 1458.39,404.28 1434.86,404.28 1434.86,378.25 1407.18,378.25 1407.18,404.28 1383.65,404.28 1383.65,332.35 1407.18,332.35 1407.18,358.38 1434.86,358.38 1434.86,332.35 "/>
    <path class="fil0" d="M1521.56 368.31c0,-11.39 -7.72,-17.89 -17.07,-17.89 -9.34,0 -17.07,6.5 -17.07,17.89 0,11.39 7.73,17.9 17.07,17.9 9.35,0 17.07,-6.51 17.07,-17.9zm-57.49 0c0,-23.03 15.88,-38.36 40.42,-38.36 24.55,0 40.43,15.33 40.43,38.36 0,23.04 -15.88,38.37 -40.43,38.37 -24.54,0 -40.42,-15.33 -40.42,-38.37z"/>
   </g>
   <path class="fil2" d="M342.53 265.89c-21.81,17.27 -51.17,23.81 -80.41,23.81 -36.49,0 -66.94,-10.8 -88.3,-29.73 -21.4,-18.96 -33.63,-46.04 -33.63,-78.53 0,-32.49 12.23,-59.56 33.63,-78.53 21.36,-18.92 51.81,-29.73 88.3,-29.73 29.01,0 58.44,6.56 80.34,23.81 18.07,14.23 30.98,35.69 34.25,66.67l0.21 1.95 -70.57 0 -0.35 -1.31c-2.76,-10.29 -7.94,-17.87 -15.11,-22.91 -7.53,-5.29 -17.29,-7.84 -28.77,-7.84 -13.83,0 -26.17,4.88 -34.92,13.54 -8.37,8.29 -13.47,20.07 -13.47,34.35 0,14.29 5.1,26.06 13.47,34.35 8.75,8.66 21.09,13.55 34.92,13.55 11.49,0 21.27,-2.57 28.79,-7.94 7.16,-5.11 12.34,-12.8 15.09,-23.27l0.35 -1.34 70.56 0 -0.2 1.96c-3.28,31.24 -16.12,52.84 -34.18,67.14zm188.39 -113.63l0 -72.51 74.1 0 0 192.39 75.77 -192.34 101.18 0 76.07 193.24 0 -193.24 123.41 0c30.23,0 54.23,6.49 70.53,20.18 15.64,13.14 24.11,32.81 24.11,59.62 0,26.8 -8.47,46.47 -24.07,59.61 -16.26,13.71 -40.2,20.2 -70.31,20.2l-49.62 0 0 43.72 -146.77 0 -9.37 -26.31 -89.14 0 -9.42 26.31 -146.47 0 0 -72.22 -79.68 0 0 72.22 -74.04 0 0 -203.38 74.04 0 0 72.51 79.68 0zm195.57 -7.06l-21.15 59.3 52.02 0 -21.14 -59.3 -9.73 0zm205.6 -7.13l0 43.07 43.25 0c8.33,0 15.07,-1.91 19.63,-5.69 4.27,-3.55 6.66,-8.84 6.66,-15.85 0,-6.99 -2.38,-12.28 -6.62,-15.83 -4.53,-3.79 -11.21,-5.7 -19.41,-5.7l-43.51 0zm369.2 145.06l-74.09 0 -9.37 -26.31 -89.14 0 -9.42 26.31 -76.7 0c26.7,-67.77 53.42,-135.55 80.1,-203.33l101.18 0c26.7,67.77 53.37,135.55 80.04,203.33l-2.6 0zm-132.92 -137.93l-21.15 59.3 52.02 0 -21.14 -59.3 -9.73 0z"/>
   <path class="fil3" d="M1518.87 275.21c-17.53,10.88 -42.93,16.76 -74.42,16.76 -32.56,0 -56.77,-5.55 -72.85,-17.79 -16.22,-12.34 -24.1,-31.33 -23.85,-58.08l0.02 -1.76 64.1 0 0.1 1.67c0.45,7.6 3.49,12.33 8.6,15.14 5.35,2.95 13.03,3.93 22.42,3.93 10.73,0 19.09,-1.47 24.7,-4.25 5.2,-2.58 7.97,-6.31 7.97,-11.05 0,-3.04 -1.16,-9.02 -8.71,-13.27 -5.04,-2.85 -12.87,-4.92 -24.94,-4.92l-13.03 0 0 -41.72 13.03 0c15.29,0 23.6,-2.87 28.07,-6.4 4.15,-3.28 4.85,-7.15 4.85,-9.58 0,-4.72 -2.6,-8.17 -7.01,-10.51 -5.24,-2.78 -12.95,-4.06 -22,-4.06 -9.35,0 -16.93,1.33 -22.1,4.52 -4.93,3.04 -7.68,7.92 -7.68,15.14l0 1.77 -63.72 0 -0.02 -1.76c-0.25,-26.48 8.06,-45.63 24.14,-58.21 15.96,-12.48 39.51,-18.35 69.87,-18.35 30.04,0 52.85,5.57 68.37,15.41 16.56,10.5 24.86,25.8 24.86,44.35 0,12 -3.44,21.25 -8.99,28.52 -5.28,6.94 -12.46,12.03 -20.37,15.99l0 1.01c10.58,3.4 19.76,9.55 26.21,18.35 6.12,8.35 9.76,19.06 9.76,32.04 0,1.81 -0.08,3.58 -0.23,5.32 -11.51,-10.69 -24.95,-19.85 -38.62,-26.89 -2.61,-1.34 -5.52,-2.05 -8.45,-2.05 -5.02,0 -9.77,2.02 -13.29,5.61 -3.69,3.77 -5.62,8.92 -5.38,14.19 0.25,5.3 2.69,10.28 6.74,13.69 13.68,11.51 24.49,22.53 34.25,35.68 -0.78,0.53 -1.58,1.05 -2.4,1.56z"/>
   <path class="fil1" d="M1642.67 140.9c-1.18,0 -2.31,0.39 -3.24,1.13 -67.59,53.32 -88.87,108.21 -89.08,108.76l-0.75 1.99 -1.38 -1.59c-15.72,-18.06 -35.43,-29.7 -45.78,-35.04 -1.08,-0.55 -2.28,-0.85 -3.49,-0.85 -2.09,0 -4.06,0.84 -5.55,2.36 -1.59,1.63 -2.41,3.8 -2.3,6.11 0.1,2.3 1.16,4.45 2.89,5.92 21.24,17.88 34.69,33.43 47.95,55.47 1.87,3.1 4.97,4.88 8.51,4.88 4.19,0 7.77,-2.47 9.35,-6.43 15.63,-39.31 43.3,-94.32 86.31,-133.18 1.14,-1.03 1.8,-2.51 1.82,-4.06 0.02,-1.56 -0.59,-2.99 -1.7,-4.05 -0.97,-0.92 -2.24,-1.42 -3.56,-1.42z"/>
  </g>
 </g>
</svg>
