<?xml version="1.0" encoding="UTF-8"?>
<!DOCTYPE svg PUBLIC "-//W3C//DTD SVG 1.1//EN" "http://www.w3.org/Graphics/SVG/1.1/DTD/svg11.dtd">
<!-- Creator: CorelDRAW 2020 (64 Bit) -->
<svg xmlns="http://www.w3.org/2000/svg" xml:space="preserve" width="16.9332mm" height="16.9332mm" version="1.1" style="shape-rendering:geometricPrecision; text-rendering:geometricPrecision; image-rendering:optimizeQuality; fill-rule:evenodd; clip-rule:evenodd"
viewBox="0 0 1693.32 1693.32"
 xmlns:xlink="http://www.w3.org/1999/xlink"
 xmlns:xodm="http://www.corel.com/coreldraw/odm/2003">
 <defs>
  <style type="text/css">
   <![CDATA[
    .fil0 {fill:#0030B5}
    .fil2 {fill:#54E863;fill-rule:nonzero}
    .fil1 {fill:white;fill-rule:nonzero}
   ]]>
  </style>
 </defs>
 <g id="Camada_x0020_1">
  <metadata id="CorelCorpID_0Corel-Layer"/>
  <path class="fil0" d="M207.59 1655.79l1278.14 0c93.67,0 170.06,-76.39 170.06,-170.06l0 -1278.14c0,-93.67 -76.39,-170.06 -170.06,-170.06l-1278.14 0c-93.67,0 -170.06,76.39 -170.06,170.06l0 1278.14c0,93.67 76.39,170.06 170.06,170.06z"/>
  <g id="_2441232156128">
   <path class="fil1" d="M1295.51 725.17l-161.8 0 0 215.19c-47.02,-41.88 -101.4,-77.65 -156.43,-105.19 -5.01,-2.52 -10.28,-4.48 -15.69,-5.85l0 -104.15 -80.67 0c-11.06,-65.88 -42.29,-113.56 -88.73,-144.74l325.09 0 204.08 0 0 116.81 0 27.93 -25.85 0zm-262.62 381.59l-71.3 0 0 -80.29c25.85,25.34 49.23,51.52 71.3,80.29z"/>
   <path class="fil1" d="M486.81 841.08l114.95 0c43.5,0 65.87,-21.31 65.87,-58.28 0,-36.97 -22.37,-58.27 -65.87,-58.27l-90.24 0c-13.65,0 -24.71,11.16 -24.71,24.93l0 91.62zm201.32 265.67l-70.83 -135.97 -130.49 0 0 135.97 -172.12 0 0 -526.33 298.88 0c144.77,0 226.18,62.65 226.18,201.13 0,70.81 -31.69,120.93 -75.81,152.26l93.2 172.94 -169.01 0z"/>
   <path class="fil2" d="M1534.9 574.45c-4.87,0 -9.49,1.57 -13.36,4.54 -278.59,213.63 -366.34,433.6 -367.19,435.79l-3.09 7.96 -5.7 -6.36c-64.8,-72.37 -146.05,-119.02 -188.72,-140.39 -4.44,-2.23 -9.4,-3.4 -14.37,-3.4 -8.62,0 -16.74,3.35 -22.87,9.44 -6.57,6.53 -9.96,15.24 -9.51,24.5 0.44,9.2 4.79,17.83 11.94,23.69 87.56,71.64 142.97,133.96 197.65,222.29 7.69,12.41 20.47,19.53 35.06,19.53 17.28,0 32.05,-9.88 38.56,-25.77 64.44,-157.5 178.48,-377.93 355.8,-533.64 4.7,-4.12 7.43,-10.05 7.5,-16.27 0.07,-6.22 -2.42,-11.98 -7.01,-16.2 -4.01,-3.68 -9.23,-5.71 -14.69,-5.71z"/>
  </g>
 </g>
</svg>
